<svg width="24" height="24" viewBox="0 0 24 24" fill="none" xmlns="http://www.w3.org/2000/svg">
<g clip-path="url(#clip0_1_10892)">
<path fill-rule="evenodd" clip-rule="evenodd" d="M5.12527 3.4196C6.14165 2.95161 7.2876 2.85535 8.36657 3.14733C8.89159 3.2894 9.20316 3.8344 9.06248 4.36462C8.9218 4.89484 8.38215 5.2095 7.85713 5.06743C7.21956 4.8949 6.54241 4.95178 5.94182 5.22831C5.34123 5.50485 4.85463 5.98381 4.56547 6.58305C4.27631 7.18229 4.20261 7.86446 4.35702 8.51258C4.51142 9.16069 4.88431 9.73435 5.41172 10.1352C5.69785 10.3526 5.84444 10.7099 5.79449 11.068C5.74454 11.4261 5.50593 11.7285 5.17145 11.8577C4.50286 12.1159 3.88867 12.5147 3.3728 13.0357C3.199 13.2112 3.03898 13.3979 2.89339 13.5942C2.59005 14.0032 2.60982 14.3458 2.76947 14.6526C2.95798 15.0149 3.39113 15.3905 4.00383 15.5852C4.52232 15.7499 4.81042 16.3079 4.64731 16.8315C4.48421 17.3552 3.93167 17.6461 3.41318 17.4814C2.40756 17.1619 1.50336 16.4927 1.02707 15.5773C0.521915 14.6065 0.549446 13.4387 1.318 12.4025C1.51939 12.131 1.74072 11.8727 1.98098 11.63C2.35143 11.2559 2.75857 10.9274 3.19384 10.6479C2.84349 10.148 2.58727 9.58189 2.4433 8.97758C2.182 7.88077 2.30672 6.72632 2.79607 5.71223C3.28541 4.69813 4.10889 3.88758 5.12527 3.4196ZM17.714 5.22831C17.1134 4.95178 16.4362 4.8949 15.7987 5.06743C15.2737 5.2095 14.734 4.89484 14.5933 4.36462C14.4526 3.8344 14.7642 3.2894 15.2892 3.14733C16.3682 2.85535 17.5142 2.95161 18.5305 3.4196C19.5469 3.88758 20.3704 4.69813 20.8597 5.71223C21.3491 6.72632 21.4738 7.88077 21.2125 8.97758C21.0685 9.58189 20.8123 10.148 20.462 10.6479C20.8972 10.9274 21.3044 11.2559 21.6748 11.63C21.9151 11.8727 22.1364 12.131 22.3378 12.4025C23.1064 13.4387 23.1339 14.6065 22.6287 15.5773C22.1524 16.4927 21.2482 17.1619 20.2426 17.4814C19.7241 17.6461 19.1716 17.3552 19.0085 16.8315C18.8454 16.3079 19.1335 15.7499 19.652 15.5852C20.2647 15.3905 20.6978 15.0149 20.8863 14.6526C21.046 14.3458 21.0658 14.0032 20.7624 13.5942C20.6168 13.3979 20.4568 13.2112 20.283 13.0357C19.7671 12.5147 19.1529 12.1159 18.4844 11.8577C18.1499 11.7285 17.9113 11.4261 17.8613 11.068C17.8114 10.7099 17.958 10.3526 18.2441 10.1352C18.7715 9.73435 19.1444 9.16069 19.2988 8.51258C19.4532 7.86446 19.3795 7.18229 19.0903 6.58305C18.8012 5.98381 18.3146 5.50485 17.714 5.22831ZM11.828 6.95742C10.2578 6.95742 8.98489 8.24295 8.98489 9.82874C8.98489 11.4145 10.2578 12.7001 11.828 12.7001C13.3982 12.7001 14.6712 11.4145 14.6712 9.82874C14.6712 8.24295 13.3982 6.95742 11.828 6.95742ZM15.0201 13.4647C16.0135 12.5745 16.6395 11.2754 16.6395 9.82874C16.6395 7.1451 14.4853 4.96959 11.828 4.96959C9.17073 4.96959 7.01656 7.1451 7.01656 9.82874C7.01656 11.2754 7.6426 12.5745 8.63601 13.4647C7.96403 13.8058 7.34381 14.2554 6.80204 14.8026C6.56178 15.0452 6.34046 15.3035 6.13906 15.575C5.6877 16.1836 5.47515 16.8619 5.51258 17.5464C5.54943 18.2204 5.82394 18.8238 6.21638 19.3109C6.98865 20.2695 8.28353 20.8723 9.64102 20.8723H14.0151C15.3726 20.8723 16.6675 20.2695 17.4397 19.3109C17.8322 18.8238 18.1067 18.2204 18.1435 17.5464C18.1809 16.8619 17.9684 16.1836 17.517 15.575C17.3156 15.3035 17.0943 15.0452 16.854 14.8026C16.3123 14.2554 15.6921 13.8057 15.0201 13.4647ZM11.828 14.6879C10.465 14.6879 9.15771 15.2348 8.19386 16.2082C8.02007 16.3837 7.86004 16.5705 7.71446 16.7667C7.51411 17.0369 7.46832 17.2614 7.47791 17.4368C7.48808 17.6227 7.56594 17.8363 7.74322 18.0564C8.1104 18.5122 8.82435 18.8845 9.64102 18.8845H14.0151C14.8317 18.8845 15.5457 18.5122 15.9129 18.0564C16.0902 17.8363 16.168 17.6227 16.1782 17.4368C16.1878 17.2614 16.142 17.0369 15.9416 16.7667C15.7961 16.5705 15.636 16.3837 15.4622 16.2082C14.4984 15.2348 13.1911 14.6879 11.828 14.6879Z" fill="black"/>
</g>
<defs>
<clipPath id="clip0_1_10892">
<rect width="23.6199" height="23.854" fill="white" transform="translate(0.0181274)"/>
</clipPath>
</defs>
</svg>
