<svg width="24" height="24" viewBox="0 0 24 24" fill="none" xmlns="http://www.w3.org/2000/svg">
<path fill-rule="evenodd" clip-rule="evenodd" d="M3.21669 7C3.21669 4.23858 5.41981 2 8.1375 2H11.8281C14.5458 2 16.7489 4.23858 16.7489 7V8.11774C18.8169 8.61728 20.4395 10.6441 20.4395 13V16.3761C20.4395 16.961 20.6078 17.5331 20.9236 18.0221L22.4926 20.4513C22.691 20.7586 22.7076 21.1517 22.5358 21.475C22.364 21.7984 22.0314 22 21.6697 22H11.8281C9.11042 22 6.9073 19.7614 6.9073 17V16H1.98648C1.62481 16 1.29227 15.7984 1.12046 15.475C0.948646 15.1517 0.965241 14.7586 1.16368 14.4513L2.73262 12.0221C3.04843 11.5331 3.21669 10.961 3.21669 10.3761V7ZM8.87562 16V17C8.87562 18.6569 10.1975 20 11.8281 20H19.8467L19.278 19.1194C18.7516 18.3044 18.4712 17.3509 18.4712 16.3761V13C18.4712 11.723 17.702 10.6709 16.7489 10.227V11C16.7489 13.7614 14.5458 16 11.8281 16H8.87562ZM3.8095 14L4.37824 13.1194C4.90459 12.3044 5.18501 11.3509 5.18501 10.3761V7C5.18501 5.34315 6.50689 4 8.1375 4H11.8281C13.4587 4 14.7806 5.34315 14.7806 7V11C14.7806 12.6569 13.4587 14 11.8281 14H3.8095Z" fill="black"/>
</svg>
