<svg width="20" height="19" viewBox="0 0 20 19" fill="none" xmlns="http://www.w3.org/2000/svg">
<g clip-path="url(#clip0_1_10886)">
<path d="M16.6623 8.14625L5.64537 1.44083C5.40974 1.30258 5.1426 1.22943 4.87051 1.22866C4.59842 1.22788 4.33088 1.29951 4.09449 1.43642C3.85811 1.57333 3.66112 1.77074 3.52314 2.00902C3.38515 2.2473 3.31097 2.51813 3.30798 2.79458L3.30798 16.2054C3.31097 16.4819 3.38515 16.7527 3.52313 16.991C3.66112 17.2293 3.85811 17.4267 4.09449 17.5636C4.33088 17.7005 4.59842 17.7721 4.87051 17.7713C5.1426 17.7706 5.40974 17.6974 5.64537 17.5592L16.6623 10.8538C16.8912 10.7126 17.0806 10.5139 17.2119 10.2768C17.3433 10.0397 17.4124 9.77213 17.4124 9.5C17.4124 9.22788 17.3433 8.96035 17.2119 8.72322C17.0806 8.4861 16.8912 8.28738 16.6623 8.14625V8.14625Z" stroke="black" stroke-width="2" stroke-linecap="round" stroke-linejoin="round"/>
</g>
<defs>
<clipPath id="clip0_1_10886">
<rect width="19" height="18.6991" fill="white" transform="translate(19.6697) rotate(90)"/>
</clipPath>
</defs>
</svg>
