<svg width="24" height="24" viewBox="0 0 24 24" fill="none" xmlns="http://www.w3.org/2000/svg">
<path fill-rule="evenodd" clip-rule="evenodd" d="M3.95477 5C3.95477 3.34315 5.27665 2 6.90726 2H16.7489C18.3795 2 19.7014 3.34315 19.7014 5V8C19.7014 8.55228 19.2608 9 18.7172 9C18.1737 9 17.7331 8.55228 17.7331 8V5C17.7331 4.44772 17.2924 4 16.7489 4H6.90726C6.36372 4 5.9231 4.44772 5.9231 5V19C5.9231 19.5523 6.36372 20 6.90726 20H16.7489C17.2924 20 17.7331 19.5523 17.7331 19V16C17.7331 15.4477 18.1737 15 18.7172 15C19.2608 15 19.7014 15.4477 19.7014 16V19C19.7014 20.6569 18.3795 22 16.7489 22H6.90726C5.27665 22 3.95477 20.6569 3.95477 19V5ZM13.5081 7.29289C13.8925 7.68342 13.8925 8.31658 13.5081 8.70711L11.2516 11L19.7014 11C20.2449 11 20.6855 11.4477 20.6855 12C20.6855 12.5523 20.2449 13 19.7014 13L11.2516 13L13.5081 15.2929C13.8925 15.6834 13.8925 16.3166 13.5081 16.7071C13.1238 17.0976 12.5007 17.0976 12.1163 16.7071L8.17968 12.7071C7.79534 12.3166 7.79534 11.6834 8.17968 11.2929L12.1163 7.29289C12.5007 6.90237 13.1238 6.90237 13.5081 7.29289Z" fill="black"/>
</svg>
