<svg width="24" height="24" viewBox="0 0 24 24" fill="none" xmlns="http://www.w3.org/2000/svg">
<path fill-rule="evenodd" clip-rule="evenodd" d="M11.1322 2.29289C11.5165 1.90237 12.1396 1.90237 12.524 2.29289L21.3815 11.2929C21.7658 11.6834 21.7658 12.3166 21.3815 12.7071C20.9971 13.0976 20.374 13.0976 19.9896 12.7071L19.7014 12.4142V19C19.7014 20.6569 18.3795 22 16.7489 22H6.90726C5.27665 22 3.95478 20.6569 3.95478 19V12.4142L3.66652 12.7071C3.28218 13.0976 2.65904 13.0976 2.2747 12.7071C1.89037 12.3166 1.89037 11.6834 2.2747 11.2929L4.24268 9.29325C4.24291 9.29301 4.24315 9.29277 4.24338 9.29254L11.1322 2.29289ZM5.9231 10.4142V19C5.9231 19.5523 6.36373 20 6.90726 20H16.7489C17.2924 20 17.7331 19.5523 17.7331 19V10.4142L11.8281 4.41421L5.9231 10.4142Z" fill="black"/>
</svg>
