<svg width="24" height="24" viewBox="0 0 24 24" fill="none" xmlns="http://www.w3.org/2000/svg">
<path fill-rule="evenodd" clip-rule="evenodd" d="M1.00232 10C1.00232 7.23858 3.20544 5 5.92313 5H12.8123C15.5036 5 17.6903 7.19541 17.7325 9.91988L21.0549 7.21913C21.3504 6.979 21.7551 6.93218 22.0961 7.0987C22.437 7.26522 22.6539 7.61559 22.6539 8V16C22.6539 16.3844 22.437 16.7348 22.0961 16.9013C21.7551 17.0678 21.3504 17.021 21.0549 16.7809L17.7325 14.0801C17.6903 16.8046 15.5036 19 12.8123 19H5.92313C3.20544 19 1.00232 16.7614 1.00232 14V10ZM15.7648 10C15.7648 8.34315 14.4429 7 12.8123 7H5.92313C4.29252 7 2.97065 8.34315 2.97065 10V14C2.97065 15.6569 4.29252 17 5.92313 17H12.8123C14.4429 17 15.7648 15.6569 15.7648 14V10ZM18.3244 12L20.6856 13.9194V10.0806L18.3244 12Z" fill="black"/>
</svg>
