<svg width="24" height="24" viewBox="0 0 24 24" fill="none" xmlns="http://www.w3.org/2000/svg">
<path fill-rule="evenodd" clip-rule="evenodd" d="M7.39935 1C7.94288 1 8.38351 1.44772 8.38351 2V3H15.2726V2C15.2726 1.44772 15.7133 1 16.2568 1C16.8003 1 17.241 1.44772 17.241 2V3.02469C19.7276 3.27555 21.6697 5.40733 21.6697 8V17C21.6697 19.7614 19.4666 22 16.7489 22H6.90726C4.18957 22 1.98645 19.7614 1.98645 17V8C1.98645 5.40733 3.92854 3.27555 6.41518 3.02469V2C6.41518 1.44772 6.85581 1 7.39935 1ZM4.12278 7H19.5334C19.1281 5.83481 18.0344 5 16.7489 5H6.90726C5.62173 5 4.52809 5.83481 4.12278 7ZM19.7014 9H3.95478V17C3.95478 18.6569 5.27665 20 6.90726 20H16.7489C18.3795 20 19.7014 18.6569 19.7014 17V9Z" fill="black"/>
</svg>
